<svg width="463" height="122" viewBox="0 0 463 122" fill="none" xmlns="http://www.w3.org/2000/svg">
<path d="M105.184 86.9405V35.0586C105.184 34.6827 105.184 34.3067 105.184 33.9308C105.56 33.1789 105.184 32.051 104.808 30.9231C104.432 30.1712 103.304 29.4193 102.552 29.0433C102.176 28.6674 101.8 28.6674 101.424 28.2914L56.3098 2.3505C55.9339 2.3505 55.5579 1.97455 55.182 1.97455C54.806 1.22264 53.6781 0.84668 52.9262 0.84668C52.1743 0.84668 51.0464 1.22264 50.2945 1.97455C49.9186 1.97455 49.5426 2.3505 49.1667 2.3505L4.052 28.2914C3.67605 28.6674 3.30009 29.0433 2.92413 29.0433C2.17222 29.4193 1.04436 30.1712 0.668401 30.9231C0.292445 31.675 -0.083511 32.8029 0.292445 33.9308C0.292445 34.3067 0.292445 34.6827 0.292445 35.0586V86.9405C0.292445 87.3165 0.292445 87.6924 0.292445 88.0684C-0.083511 88.8203 0.292445 89.9481 0.668401 91.076C1.04436 91.8279 2.17222 92.5798 2.92413 92.9558C3.30009 93.3317 3.67605 93.3317 4.052 93.7077L49.1667 119.649C49.5426 120.025 49.9186 120.025 50.2945 120.025C51.0464 120.777 51.7984 121.152 52.9262 121.152C54.0541 121.152 54.806 120.777 55.5579 120.025C55.9339 120.025 56.3098 119.649 56.6858 119.649L101.8 93.7077C102.176 93.3317 102.552 93.3317 102.928 92.9558C103.68 92.5798 104.808 92.2039 105.184 91.076C105.56 90.3241 105.936 89.1962 105.56 88.0684C105.184 87.6924 105.184 87.3165 105.184 86.9405ZM56.6858 10.9975L94.2813 32.8029L77.3633 42.5777L56.6858 30.5472V10.9975ZM49.1667 10.9975V30.5472L28.4891 42.5777L11.5711 32.8029L49.1667 10.9975ZM7.81156 39.1941L24.7296 48.969V72.6542L7.81156 82.429V39.1941V39.1941ZM49.1667 111.002L11.5711 89.1962L28.4891 79.4214L49.1667 91.452V111.002ZM49.1667 82.805L32.2487 73.0301V53.4805L49.1667 63.2553V82.805ZM52.9262 56.4881L36.0082 46.7133L52.9262 36.9384L69.8442 46.7133L52.9262 56.4881ZM73.2278 53.4805V73.0301L56.3098 82.805V63.2553L73.2278 53.4805ZM56.6858 111.002V91.452L77.3633 79.4214L94.2813 89.1962L56.6858 111.002ZM97.6649 82.805L80.7469 73.0301V49.3449L97.6649 39.5701V82.805Z" fill="#F2F2F2"/>
<path d="M133.243 65.6503V60.9403L142.592 51.4503H156.723V65.6503H133.243ZM133.243 89.1403V75.0803H156.723V89.1403H166.083V42.0303H137.882L123.812 56.2303V89.1403H133.243Z" fill="#5272FF"/>
<path d="M177.452 32.68L182.232 37.39H205.722L210.432 32.68V23.25H201.013V29.38H186.873V23.25H177.452V32.68ZM182.232 89.14L205.722 57.71V89.14H215.073V42.03H205.722L182.232 73.39V42.03H172.812V89.14H182.232Z" fill="#5272FF"/>
<path d="M245.691 89.1403V51.4503H262.051V42.0303H219.781V51.4503H236.271V89.1403H245.691Z" fill="#5272FF"/>
<path d="M276.182 89.1403L299.672 57.7103V89.1403H309.022V42.0303H299.672L276.182 73.3903V42.0303H266.762V89.1403H276.182Z" fill="#5272FF"/>
<path d="M325.912 65.6503V51.4503H349.402V65.6503H325.912ZM325.912 89.1403V75.0803H354.112L358.752 70.3603V46.8103L354.112 42.0303H316.492V89.1403H325.912Z" fill="#F2F2F2"/>
<path d="M367.433 89.1403H390.993L405.053 75.0803V42.0303H395.703V60.9403H381.573L372.213 51.5203V42.0303H362.793V56.2303L376.863 70.3603H395.703L386.283 79.7203H367.433V89.1403Z" fill="#F2F2F2"/>
<path d="M420.533 89.1403V57.3803L433.123 75.4803H440.993L453.313 57.3803V89.1403H462.733V42.0303H453.643L436.953 64.8503L420.533 42.0303H411.113V89.1403H420.533Z" fill="#F2F2F2"/>
</svg>
