<svg width="19" height="18" viewBox="0 0 19 18" fill="none" xmlns="http://www.w3.org/2000/svg">
<g clip-path="url(#clip0_482_229)">
<path d="M9.42578 18C14.3963 18 18.4258 13.9705 18.4258 9C18.4258 4.02945 14.3963 0 9.42578 0C4.45523 0 0.425781 4.02945 0.425781 9C0.425781 13.9705 4.45523 18 9.42578 18Z" fill="url(#paint0_linear_482_229)"/>
<path d="M3.77642 9.44038C4.82851 8.86086 6.00294 8.37718 7.10026 7.89104C8.98809 7.09476 10.8834 6.31228 12.7979 5.58381C13.1704 5.45968 13.8396 5.3383 13.9052 5.8903C13.8693 6.67165 13.7215 7.44842 13.6201 8.2252C13.3627 9.9334 13.0653 11.6357 12.7752 13.3383C12.6753 13.9054 11.9648 14.199 11.5103 13.8361C10.4178 13.0982 9.31696 12.3674 8.23846 11.6124C7.88518 11.2534 8.21278 10.7379 8.5283 10.4816C9.42808 9.59485 10.3823 8.84147 11.2351 7.90892C11.4651 7.35343 10.7854 7.82158 10.5613 7.96502C9.32945 8.81387 8.1278 9.71455 6.8291 10.4606C6.16572 10.8257 5.39255 10.5137 4.72948 10.3099C4.13494 10.0637 3.26374 9.81576 3.77636 9.44042L3.77642 9.44038Z" fill="white"/>
</g>
<defs>
<linearGradient id="paint0_linear_482_229" x1="7.17683" y1="0.7506" x2="2.67683" y2="11.25" gradientUnits="userSpaceOnUse">
<stop stop-color="#37AEE2"/>
<stop offset="1" stop-color="#1E96C8"/>
</linearGradient>
<clipPath id="clip0_482_229">
<rect width="18" height="18" fill="white" transform="translate(0.425781)"/>
</clipPath>
</defs>
</svg>
