<svg width="19" height="18" viewBox="0 0 19 18" fill="none" xmlns="http://www.w3.org/2000/svg">
<g clip-path="url(#clip0_482_217)">
<path fill-rule="evenodd" clip-rule="evenodd" d="M10.0641 6.29494C10.4145 6.36961 10.6831 6.50278 10.9126 6.71766C11.2079 6.99652 11.3698 7.33402 11.4409 7.81889C11.489 8.13502 11.4693 8.25933 11.3573 8.36241C11.2523 8.45831 11.0584 8.46183 10.941 8.37127C10.8556 8.30728 10.8289 8.23978 10.8094 8.05683C10.7863 7.81341 10.7436 7.64297 10.6706 7.48491C10.5141 7.14923 10.2383 6.97514 9.77227 6.91833C9.55345 6.89161 9.48764 6.86686 9.41648 6.78333C9.28655 6.62878 9.33647 6.37833 9.51605 6.28594C9.58369 6.25219 9.61209 6.24867 9.76158 6.25753C9.85425 6.26288 9.99122 6.27891 10.0641 6.29494ZM9.68522 4.9538C10.7651 5.11186 11.6011 5.61277 12.1491 6.42628C12.4569 6.88458 12.649 7.42275 12.7148 8.00002C12.7379 8.21138 12.7379 8.59683 12.713 8.66081C12.6898 8.72114 12.6151 8.80284 12.5512 8.83659C12.4818 8.87217 12.3342 8.86852 12.2523 8.82591C12.1154 8.75658 12.0744 8.64647 12.0744 8.34806C12.0744 7.88808 11.9552 7.40306 11.7489 7.02647C11.514 6.59658 11.1725 6.24136 10.7562 5.99442C10.3986 5.78123 9.87028 5.62317 9.38822 5.58408C9.21384 5.56987 9.1178 5.5343 9.05198 5.45794C8.95059 5.34248 8.93991 5.18611 9.02527 5.05645C9.11766 4.91302 9.25997 4.88981 9.68522 4.9538ZM5.49572 3.85791C5.55802 3.87928 5.65406 3.92892 5.70919 3.9645C6.04711 4.18837 6.98817 5.39086 7.296 5.99119C7.47206 6.33403 7.53084 6.588 7.47572 6.7763C7.41877 6.9788 7.32455 7.08539 6.90281 7.42458C6.73378 7.56127 6.57544 7.70161 6.55055 7.73902C6.48656 7.83141 6.43495 8.01253 6.43495 8.1405C6.43678 8.43708 6.62888 8.97539 6.88144 9.38925C7.07705 9.71072 7.42748 10.1228 7.77441 10.439C8.1818 10.8121 8.54109 11.0661 8.9468 11.2667C9.46809 11.526 9.78647 11.5917 10.0195 11.4834C10.0781 11.4567 10.1404 11.4213 10.16 11.4052C10.1777 11.3892 10.3148 11.2223 10.4641 11.0375C10.7523 10.6751 10.8181 10.6165 11.0157 10.549C11.2665 10.4638 11.5226 10.4868 11.7807 10.6183C11.9764 10.7196 12.4034 10.9842 12.679 11.176C13.0419 11.43 13.8175 12.0624 13.9225 12.1885C14.1075 12.4159 14.1395 12.7072 14.0151 13.0288C13.8834 13.368 13.3711 14.0039 13.0135 14.2757C12.6898 14.5208 12.4603 14.6149 12.1578 14.6291C11.9088 14.6415 11.8056 14.6202 11.4872 14.4887C8.98969 13.4603 6.99548 11.9257 5.41219 9.81717C4.58503 8.71594 3.95517 7.57378 3.52472 6.38902C3.27384 5.69812 3.26147 5.39789 3.46777 5.04436C3.55678 4.89516 3.93563 4.52573 4.21139 4.31972C4.67039 3.9787 4.88203 3.85256 5.05106 3.81698C5.16666 3.79209 5.36775 3.81164 5.49572 3.85791ZM9.56245 3.66609C10.1745 3.74245 10.6689 3.88983 11.2116 4.15462C11.7452 4.41577 12.0868 4.6627 12.5386 5.112C12.9621 5.53655 13.1969 5.85802 13.446 6.35709C13.7929 7.05333 13.9903 7.88119 14.0241 8.7923C14.0366 9.10308 14.0276 9.17241 13.9564 9.26128C13.8213 9.43355 13.5241 9.40514 13.4227 9.2115C13.3907 9.14752 13.3818 9.09253 13.3711 8.84377C13.3533 8.46183 13.3267 8.21503 13.2733 7.92014C13.0633 6.76378 12.5083 5.84016 11.6223 5.17753C10.884 4.62333 10.1209 4.35333 9.12117 4.29469C8.78311 4.27514 8.72447 4.26277 8.64797 4.20412C8.50566 4.09219 8.49848 3.82936 8.63545 3.70673C8.71912 3.63037 8.77777 3.61969 9.06773 3.62855C9.21919 3.63403 9.44152 3.65189 9.56245 3.66609ZM9.02344 0C13.994 0 18.0234 4.02947 18.0234 9C18.0234 13.9705 13.994 18 9.02344 18C4.05291 18 0.0234375 13.9705 0.0234375 9C0.0234375 4.02947 4.05291 0 9.02344 0Z" fill="#7F4DA0"/>
</g>
<defs>
<clipPath id="clip0_482_217">
<rect width="18" height="18" fill="white" transform="translate(0.0234375)"/>
</clipPath>
</defs>
</svg>
