<svg width="19" height="18" viewBox="0 0 19 18" fill="none" xmlns="http://www.w3.org/2000/svg">
<g clip-path="url(#clip0_482_225)">
<path d="M0.9375 18L2.4855 13.3563C1.70002 12.0352 1.24784 10.4934 1.24784 8.84483C1.24784 3.96 5.20784 0 10.0927 0C14.9775 0 18.9375 3.96 18.9375 8.84483C18.9375 13.7297 14.9775 17.6897 10.0927 17.6897C8.60643 17.6897 7.20678 17.3213 5.9775 16.6739L0.9375 18Z" fill="#2CB742"/>
<path d="M15.7341 11.7884C15.3257 11.0166 13.8196 10.134 13.8196 10.134C13.4789 9.9397 13.0677 9.91798 12.8734 10.2643C12.8734 10.2643 12.384 10.8512 12.2595 10.9356C11.691 11.3207 11.1643 11.3058 10.6327 10.7742L9.39721 9.53874L8.16173 8.30326C7.63011 7.77163 7.61521 7.24498 8.00035 6.67643C8.08477 6.55198 8.67163 6.06257 8.67163 6.06257C9.01797 5.86798 8.99625 5.45708 8.80197 5.11632C8.80197 5.11632 7.91935 3.61022 7.14752 3.20181C6.81918 3.02801 6.41604 3.08884 6.15349 3.35139L5.6079 3.89698C3.87711 5.62777 4.72932 7.5817 6.46011 9.3125L8.04194 10.8943L9.62377 12.4762C11.3546 14.2069 13.3085 15.0592 15.0393 13.3284L15.5849 12.7828C15.8474 12.5196 15.9079 12.1165 15.7341 11.7884Z" fill="white"/>
</g>
<defs>
<clipPath id="clip0_482_225">
<rect width="18" height="18" fill="white" transform="translate(0.9375)"/>
</clipPath>
</defs>
</svg>
